<svg width="387.4400146484375px" height="122.39999389648438px" xmlns="http://www.w3.org/2000/svg" viewBox="56.279992675781244 13.800003051757812 387.4400146484375 122.39999389648438" style="background: none;" preserveAspectRatio="xMidYMid"><defs><filter id="editing-extrusion" x="-100%" y="-100%" width="300%" height="300%"><feFlood result="color1" flood-color="#444444"></feFlood><feConvolveMatrix order="8,8" divisor="1" kernelMatrix="1 0 0 0 0 0 0 0 0 1 0 0 0 0 0 0 0 0 1 0 0 0 0 0 0 0 0 1 0 0 0 0 0 0 0 0 1 0 0 0 0 0 0 0 0 1 0 0 0 0 0 0 0 0 1 0 0 0 0 0 0 0 0 1" in="SourceAlpha" result="extrude"></feConvolveMatrix><feComposite in="color1" in2="extrude" result="comp-extrude" operator="in"></feComposite><feOffset dx="4" dy="4" in="comp-extrude" result="offset-extrude"></feOffset><feMerge><feMergeNode in="offset-extrude"></feMergeNode><feMergeNode in="SourceGraphic"></feMergeNode></feMerge></filter></defs><g filter="url(#editing-extrusion)"><g transform="translate(115.79000794887543, 99)"><path d="M7.68 0L0.64 0L8.32-42.24L22.08-42.24L32.06-13.18L37.38-42.24L44.48-42.18L36.67 0L22.02 0L12.80-27.97L7.68 0ZM61.44-3.52L61.44-3.52L61.44-3.52Q59.46 1.28 53.12 1.28L53.12 1.28L53.12 1.28Q49.86 1.28 47.81-0.96L47.81-0.96L47.81-0.96Q46.08-2.94 46.08-4.93L46.08-4.93L46.08-4.93Q46.08-10.11 48.45-20.22L48.45-20.22L50.82-32.64L63.81-33.92L59.90-13.70L59.90-13.70Q58.82-8.96 58.82-7.30L58.82-7.30L58.82-7.30Q58.82-3.65 61.44-3.52ZM51.97-41.54L51.97-41.54L51.97-41.54Q51.97-44.03 54.05-45.38L54.05-45.38L54.05-45.38Q56.13-46.72 59.14-46.72L59.14-46.72L59.14-46.72Q62.14-46.72 63.97-45.38L63.97-45.38L63.97-45.38Q65.79-44.03 65.79-41.54L65.79-41.54L65.79-41.54Q65.79-39.04 63.78-37.76L63.78-37.76L63.78-37.76Q61.76-36.48 58.75-36.48L58.75-36.48L58.75-36.48Q55.74-36.48 53.86-37.76L53.86-37.76L53.86-37.76Q51.97-39.04 51.97-41.54ZM98.30-26.62L98.30-26.62L98.30-26.62Q98.30-23.94 96.06-22.27L96.06-22.27L96.06-22.27Q93.82-20.61 90.18-20.61L90.18-20.61L90.18-20.61Q88.64-20.61 87.74-21.06L87.74-21.06L87.74-21.06Q88.45-22.72 88.67-24.80L88.67-24.80L88.67-24.80Q88.90-26.88 88.90-27.46L88.90-27.46L88.90-27.46Q88.90-30.14 87.04-30.14L87.04-30.14L87.04-30.14Q85.76-30.14 84.32-28.54L84.32-28.54L84.32-28.54Q82.88-26.94 81.66-24.45L81.66-24.45L81.66-24.45Q78.98-18.69 78.98-12.86L78.98-12.86L78.98-12.86Q78.98-9.66 80.19-8.22L80.19-8.22L80.19-8.22Q81.41-6.78 84.10-6.78L84.10-6.78L84.10-6.78Q87.81-6.78 90.75-9.86L90.75-9.86L90.75-9.86Q91.58-10.82 92.03-11.90L92.03-11.90L92.03-11.90Q94.46-10.62 94.46-7.10L94.46-7.10L94.46-7.10Q94.46-3.52 90.50-1.15L90.50-1.15L90.50-1.15Q86.40 1.28 79.87 1.28L79.87 1.28L79.87 1.28Q66.88 1.28 66.88-12.48L66.88-12.48L66.88-12.48Q66.88-22.53 72.58-28.29L72.58-28.29L72.58-28.29Q78.08-33.92 88.19-33.92L88.19-33.92L88.19-33.92Q98.30-33.92 98.30-26.62ZM132.22-7.10L132.22-7.10L132.22-7.10Q132.22-4.29 135.10-3.46L135.10-3.46L135.10-3.46Q134.40-1.09 131.65 0.19L131.65 0.19L131.65 0.19Q129.34 1.28 126.82 1.28L126.82 1.28L126.82 1.28Q124.29 1.28 122.98 0.61L122.98 0.61L122.98 0.61Q121.66-0.06 120.96-1.15L120.96-1.15L120.96-1.15Q119.81-2.82 119.81-5.95L119.81-5.95L119.81-5.95Q119.81-7.81 120.83-12.93L120.83-12.93L121.73-17.79L121.73-17.79Q122.82-23.36 122.82-25.41L122.82-25.41L122.82-25.41Q122.82-28.99 120.83-28.99L120.83-28.99L120.83-28.99Q118.34-28.99 116.74-25.34L116.74-25.34L116.74-25.34Q116.10-23.94 115.65-21.82L115.65-21.82L111.30 0L98.43 1.28L107.46-44.80L120.32-46.08L119.81-43.52L119.81-43.52Q118.02-33.66 116.48-30.34L116.48-30.34L116.48-30.34Q120.06-33.92 126.66-33.92L126.66-33.92L126.66-33.92Q133.63-33.92 134.91-29.31L134.91-29.31L134.91-29.31Q135.36-27.84 135.36-26.56L135.36-26.56L135.36-26.56Q135.36-25.28 135.26-24.29L135.26-24.29L135.26-24.29Q135.17-23.30 134.85-21.50L134.85-21.50L134.02-16.90L132.54-9.66L132.54-9.66Q132.22-8.19 132.22-7.10ZM154.24 1.28L154.24 1.28L154.24 1.28Q140.16 1.28 140.16-11.97L140.16-11.97L140.16-11.97Q140.16-21.38 145.34-27.46L145.34-27.46L145.34-27.46Q150.85-33.92 160.38-33.92L160.38-33.92L160.38-33.92Q167.30-33.92 170.82-30.72L170.82-30.72L170.82-30.72Q174.34-27.52 174.34-20.80L174.34-20.80L174.34-20.80Q174.34-10.56 168.83-4.61L168.83-4.61L168.83-4.61Q163.46 1.28 154.24 1.28ZM155.90-26.56L155.90-26.56L155.90-26.56Q155.14-24.83 154.53-22.24L154.53-22.24L154.53-22.24Q153.92-19.65 153.15-15.55L153.15-15.55L153.15-15.55Q152.38-11.46 152.38-6.40L152.38-6.40L152.38-6.40Q152.38-4.74 152.93-3.65L152.93-3.65L152.93-3.65Q153.47-2.56 154.94-2.56L154.94-2.56L154.94-2.56Q156.42-2.56 157.34-3.26L157.34-3.26L157.34-3.26Q158.27-3.97 158.98-5.63L158.98-5.63L158.98-5.63Q160.26-8.58 161.28-14.05L161.28-14.05L161.28-14.05Q162.30-19.52 162.40-21.89L162.40-21.89L162.40-21.89Q162.50-24.26 162.50-26.02L162.50-26.02L162.50-26.02Q162.50-27.78 161.98-28.93L161.98-28.93L161.98-28.93Q161.47-30.08 160.03-30.08L160.03-30.08L160.03-30.08Q158.59-30.08 157.63-29.18L157.63-29.18L157.63-29.18Q156.67-28.29 155.90-26.56ZM193.41-3.52L193.41-3.52L193.41-3.52Q191.42 1.28 185.09 1.28L185.09 1.28L185.09 1.28Q181.89 1.28 179.84-0.96L179.84-0.96L179.84-0.96Q178.18-2.82 178.18-4.93L178.18-4.93L178.18-4.93Q178.18-9.73 180.42-20.22L180.42-20.22L185.09-44.80L198.08-46.08L191.87-13.70L191.87-13.70Q190.78-8.96 190.78-7.30L190.78-7.30L190.78-7.30Q190.78-3.65 193.41-3.52ZM201.63-1.92L201.63-1.92L201.63-1.92Q200.13-3.58 199.46-6.21L199.46-6.21L199.46-6.21Q198.78-8.83 198.78-13.12L198.78-13.12L198.78-13.12Q198.78-17.41 200.26-21.31L200.26-21.31L200.26-21.31Q201.73-25.22 204.42-28.03L204.42-28.03L204.42-28.03Q209.92-33.92 219.01-33.92L219.01-33.92L219.01-33.92Q222.27-33.92 224.64-32.83L224.64-32.83L235.58-33.92L230.85-8.96L230.85-8.96Q230.66-8.19 230.66-6.78L230.66-6.78L230.66-6.78Q230.66-5.38 231.52-4.48L231.52-4.48L231.52-4.48Q232.38-3.58 233.66-3.46L233.66-3.46L233.66-3.46Q233.02-1.28 230.69 0L230.69 0L230.69 0Q228.35 1.28 225.73 1.28L225.73 1.28L225.73 1.28Q223.10 1.28 221.34 0.29L221.34 0.29L221.34 0.29Q219.58-0.70 219.07-2.37L219.07-2.37L219.07-2.37Q218.05-0.77 215.87 0.26L215.87 0.26L215.87 0.26Q213.70 1.28 210.78 1.28L210.78 1.28L210.78 1.28Q207.87 1.28 205.50 0.51L205.50 0.51L205.50 0.51Q203.14-0.26 201.63-1.92ZM215.14-27.90L215.14-27.90L215.14-27.90Q214.40-26.75 213.76-24.80L213.76-24.80L213.76-24.80Q213.12-22.85 212.06-17.63L212.06-17.63L212.06-17.63Q211.01-12.42 211.01-8.70L211.01-8.70L211.01-8.70Q211.01-4.99 211.58-3.90L211.58-3.90L211.58-3.90Q212.16-2.82 213.18-2.82L213.18-2.82L213.18-2.82Q215.23-2.82 216.74-4.77L216.74-4.77L216.74-4.77Q218.24-6.72 218.82-10.18L218.82-10.18L222.21-28.93L222.21-28.93Q220.86-30.08 219.30-30.08L219.30-30.08L219.30-30.08Q217.73-30.08 216.80-29.57L216.80-29.57L216.80-29.57Q215.87-29.06 215.14-27.90ZM258.18-22.46L258.18-22.46L258.18-22.46Q259.07-24.83 259.07-26.88L259.07-26.88L259.07-26.88Q259.07-30.66 256-30.66L256-30.66L256-30.66Q254.40-30.66 253.09-29.22L253.09-29.22L253.09-29.22Q251.78-27.78 251.78-25.98L251.78-25.98L251.78-25.98Q251.78-24.70 252.80-23.68L252.80-23.68L252.80-23.68Q254.27-22.27 258.05-19.97L258.05-19.97L258.05-19.97Q261.82-17.66 263.26-15.78L263.26-15.78L263.26-15.78Q264.70-13.89 264.70-11.30L264.70-11.30L264.70-11.30Q264.70-8.70 263.46-6.34L263.46-6.34L263.46-6.34Q262.21-3.97 259.97-2.30L259.97-2.30L259.97-2.30Q255.17 1.28 247.49 1.28L247.49 1.28L247.49 1.28Q243.33 1.28 240.13-0.90L240.13-0.90L240.13-0.90Q236.93-3.01 236.93-5.50L236.93-5.50L236.93-5.50Q236.93-8 238.75-9.47L238.75-9.47L238.75-9.47Q240.58-10.94 243.26-10.94L243.26-10.94L243.26-10.94Q245.95-10.94 247.62-9.92L247.62-9.92L247.62-9.92Q246.78-7.81 246.78-6.40L246.78-6.40L246.78-6.40Q246.78-2.18 250.37-2.18L250.37-2.18L250.37-2.18Q251.90-2.18 252.93-3.14L252.93-3.14L252.93-3.14Q253.95-4.10 253.95-5.76L253.95-5.76L253.95-5.76Q253.95-9.02 248.45-12.48L248.45-12.48L248.45-12.48Q243.97-15.42 242.94-16.58L242.94-16.58L242.94-16.58Q241.22-18.62 241.22-21.18L241.22-21.18L241.22-21.18Q241.22-23.74 242.43-26.18L242.43-26.18L242.43-26.18Q243.65-28.61 245.89-30.34L245.89-30.34L245.89-30.34Q250.56-33.92 258.69-33.92L258.69-33.92L258.69-33.92Q262.85-33.92 265.31-32.26L265.31-32.26L265.31-32.26Q267.78-30.59 267.78-27.78L267.78-27.78L267.78-27.78Q267.78-24.96 266.08-23.36L266.08-23.36L266.08-23.36Q264.38-21.76 261.31-21.76L261.31-21.76L261.31-21.76Q259.20-21.76 258.18-22.46Z" fill="rgba(80%,80%,80%,0.963)"></path></g></g><style>text {
  font-size: 64px;
  font-family: Arial Black;
  dominant-baseline: central;
  text-anchor: middle;
}</style></svg>